<?xml version="1.0" encoding="UTF-8" standalone="no"?>
<svg width="202px" height="342px" viewBox="0 0 202 342" version="1.1" xmlns="http://www.w3.org/2000/svg" xmlns:xlink="http://www.w3.org/1999/xlink">
    <!-- Generator: Sketch 3.8.3 (29802) - http://www.bohemiancoding.com/sketch -->
    <title>Page 1</title>
    <desc>Created with Sketch.</desc>
    <defs></defs>
    <g id="Images" stroke="none" stroke-width="1" fill="none" fill-rule="evenodd">
        <g id="Page-1" transform="translate(1.000000, -1.000000)">
            <g id="Face" transform="translate(0.000000, 0.932000)">
                <path d="M176.7915,126.5676 C176.5415,132.8176 173.7915,144.3176 173.7915,144.3176 C171.2915,150.3176 166.2915,152.0676 166.2915,152.0676 C156.0415,156.3176 131.7915,155.8176 131.7915,155.8176 C123.2915,155.5676 120.7915,150.0676 120.7915,150.0676 C116.7965,144.0066 113.5415,135.3926 113.5415,135.3926 C110.2915,126.4666 117.2915,121.5676 117.2915,121.5676 C129.3215,114.5686 142.0415,114.8176 142.0415,114.8176 C160.0865,113.5566 175.2915,117.8176 175.2915,117.8176 C177.1815,118.2886 176.7915,126.5676 176.7915,126.5676 L176.7915,126.5676 Z M88.0415,135.3926 C88.0415,135.3926 85.8735,141.4006 80.4585,149.7346 C80.4585,149.7346 78.4585,154.6346 69.9585,154.8846 C69.9585,154.8846 45.5415,156.3176 35.2915,152.0676 C35.2915,152.0676 30.2915,150.3176 27.7915,144.3176 C27.7915,144.3176 25.0415,132.8176 24.7915,126.5676 C24.7915,126.5676 24.4015,118.2886 26.2915,117.8176 C26.2915,117.8176 41.4965,113.5566 59.5415,114.8176 C59.5415,114.8176 72.2615,114.5686 84.2915,121.5676 C84.2915,121.5676 91.2915,126.4666 88.0415,135.3926 L88.0415,135.3926 Z M143.1665,112.5306 C126.7495,112.4476 113.1245,120.2346 113.1245,120.2346 C111.4585,120.9006 100.7915,120.9006 100.7915,120.9006 C100.7915,120.9006 90.1245,120.9006 88.4585,120.2346 C88.4585,120.2346 74.7915,112.7546 58.4165,112.2866 C58.4165,112.2866 30.4585,111.6506 16.1245,113.2346 L16.1245,124.9006 C16.1245,124.9006 18.7915,125.9006 20.7915,130.2346 L26.7915,147.5676 C26.7915,147.5676 27.4585,154.9006 52.4585,157.9006 C52.4585,157.9006 74.4585,160.2346 82.1245,152.9006 C82.1245,152.9006 89.2915,143.3176 92.1245,135.7436 L94.1245,130.5676 C94.1245,130.5676 95.2915,127.5676 100.7915,127.8176 C106.6665,127.6926 107.4585,130.5676 107.4585,130.5676 L109.4585,135.7436 C114.2825,147.6926 120.8085,153.9986 120.8085,153.9986 C128.4755,161.3316 149.1245,157.9006 149.1245,157.9006 C174.1245,154.9006 174.7915,147.5676 174.7915,147.5676 L180.7915,130.2346 C182.7915,125.9006 185.4585,124.9006 185.4585,124.9006 L185.4585,113.2346 C171.1245,111.6506 143.1665,112.5306 143.1665,112.5306 L143.1665,112.5306 Z" id="Stroke-3" stroke="#221F20" stroke-linecap="round" stroke-linejoin="round"></path>
                <path d="M68.1665,127.0676 C68.1665,128.3796 67.1035,129.4426 65.7915,129.4426 C64.4795,129.4426 63.4165,128.3796 63.4165,127.0676 C63.4165,125.7556 64.4795,124.6926 65.7915,124.6926 C67.1035,124.6926 68.1665,125.7556 68.1665,127.0676" id="Fill-5" fill="#221F20"></path>
                <path d="M72.8644,129.9355 C68.0504,129.1415 62.8874,128.6355 58.8144,128.3245" id="Stroke-7" stroke="#221F20" stroke-linecap="round" stroke-linejoin="round"></path>
                <path d="M61.2212,122.5028 C65.1902,122.1198 69.0202,122.5988 71.2322,122.9858" id="Stroke-9" stroke="#221F20" stroke-linecap="round" stroke-linejoin="round"></path>
                <path d="M72.8644,129.9355 C77.0884,130.6325 81.0404,131.5495 83.7294,132.7555 C83.7294,132.7555 80.2294,125.0055 73.1664,123.3805 C73.1664,123.3805 72.4384,123.1965 71.2324,122.9855 C72.4284,124.2695 73.1664,125.9865 73.1664,127.8805 C73.1664,128.5945 73.0584,129.2835 72.8644,129.9355 L72.8644,129.9355 Z" id="Stroke-11" stroke="#221F20" stroke-linecap="round" stroke-linejoin="round"></path>
                <path d="M61.2212,122.5028 C59.2592,122.6918 57.2642,123.0908 55.4162,123.8178 C55.4162,123.8178 51.1042,125.7548 45.7912,127.8798 C45.7912,127.8798 49.6252,127.6928 51.2912,127.8798 C51.2912,127.8798 54.4152,127.9898 58.8142,128.3248 C58.8052,128.1768 58.7912,128.0298 58.7912,127.8798 C58.7912,125.7378 59.7342,123.8198 61.2212,122.5028 L61.2212,122.5028 Z" id="Stroke-13" stroke="#221F20" stroke-linecap="round" stroke-linejoin="round"></path>
                <path d="M135.9165,126.5766 C135.9165,127.8886 136.9795,128.9516 138.2915,128.9516 C139.6035,128.9516 140.6665,127.8886 140.6665,126.5766 C140.6665,125.2646 139.6035,124.2016 138.2915,124.2016 C136.9795,124.2016 135.9165,125.2646 135.9165,126.5766" id="Fill-15" fill="#221F20"></path>
                <path d="M131.2186,129.4445 C136.0326,128.6505 141.1956,128.1445 145.2686,127.8335" id="Stroke-17" stroke="#221F20" stroke-linecap="round" stroke-linejoin="round"></path>
                <path d="M142.8618,122.0118 C138.8928,121.6288 135.0628,122.1078 132.8508,122.4948" id="Stroke-19" stroke="#221F20" stroke-linecap="round" stroke-linejoin="round"></path>
                <path d="M131.2186,129.4445 C126.9946,130.1415 123.0426,131.0585 120.3536,132.2645 C120.3536,132.2645 123.8536,124.5145 130.9166,122.8895 C130.9166,122.8895 131.6446,122.7055 132.8506,122.4945 C131.6546,123.7785 130.9166,125.4955 130.9166,127.3895 C130.9166,128.1035 131.0246,128.7925 131.2186,129.4445 L131.2186,129.4445 Z" id="Stroke-21" stroke="#221F20" stroke-linecap="round" stroke-linejoin="round"></path>
                <path d="M142.8618,122.0118 C144.8238,122.2008 146.8188,122.5998 148.6668,123.3268 C148.6668,123.3268 152.9788,125.2638 158.2918,127.3888 C158.2918,127.3888 154.4578,127.2018 152.7918,127.3888 C152.7918,127.3888 149.6678,127.4988 145.2688,127.8338 C145.2778,127.6858 145.2918,127.5388 145.2918,127.3888 C145.2918,125.2468 144.3488,123.3288 142.8618,122.0118 L142.8618,122.0118 Z" id="Stroke-23" stroke="#221F20" stroke-linecap="round" stroke-linejoin="round"></path>
                <path d="M37.6226,112.0938 C37.6226,112.0938 45.6226,104.4688 64.1226,105.4688 C64.1226,105.4688 75.9146,105.3438 83.3106,110.0108 C90.7056,114.6768 82.5396,117.2608 82.5396,117.2608" id="Stroke-25" stroke="#221F20" stroke-linecap="round" stroke-linejoin="round"></path>
                <path d="M165.0595,112.0938 C165.0595,112.0938 157.0595,104.4688 138.5595,105.4688 C138.5595,105.4688 126.7675,105.3438 119.3715,110.0108 C111.9765,114.6768 119.2515,116.9088 119.2515,116.9088" id="Stroke-27" stroke="#221F20" stroke-linecap="round" stroke-linejoin="round"></path>
                <path d="M87.5415,162.2538 C87.5415,162.2538 79.5415,163.8178 79.1145,169.7338 C79.1145,169.7338 78.0415,176.0678 85.3745,178.9008 C85.3745,178.9008 82.6245,177.4328 84.7085,176.4008 C84.7085,176.4008 87.1645,175.3798 89.1605,176.7998 C89.4455,177.0028 89.7215,177.2548 89.9795,177.5678 C92.0415,180.0678 93.3745,183.0678 97.5415,183.5678" id="Stroke-29" stroke="#221F20" stroke-linecap="round" stroke-linejoin="round"></path>
                <path d="M115.0415,162.2538 C115.0415,162.2538 123.0415,163.8178 123.4685,169.7338 C123.4685,169.7338 124.5415,176.0678 117.2085,178.9008 C117.2085,178.9008 119.9585,177.4328 117.8745,176.4008 C117.8745,176.4008 115.4185,175.3798 113.4225,176.7998 C113.1375,177.0028 112.8615,177.2548 112.6035,177.5678 C110.5415,180.0678 109.2085,183.0678 105.0415,183.5678" id="Stroke-31" stroke="#221F20" stroke-linecap="round" stroke-linejoin="round"></path>
                <path d="M111.797,206.3971 C111.797,206.3971 113.741,202.7661 116.172,202.9021 C116.172,202.9021 118.193,202.7091 118.484,206.7091 L118.484,212.3241" id="Stroke-33" stroke="#221F20" stroke-linecap="round" stroke-linejoin="round"></path>
                <path d="M102.3595,215.4596 C102.3595,215.4596 100.9845,210.2726 103.5465,206.0216 C103.5465,206.0216 106.9845,201.8346 110.7975,205.5216 C110.7975,205.5216 113.1095,208.1476 112.5475,213.8976" id="Stroke-35" stroke="#221F20" stroke-linecap="round" stroke-linejoin="round"></path>
                <path d="M118.6928,205.793 C118.6928,205.793 120.2288,202.606 122.8148,203.095 C122.8148,203.095 124.1098,203.585 124.1928,205.376 C124.1928,205.376 124.3008,207.01 124.3928,209.568" id="Stroke-37" stroke="#221F20" stroke-linecap="round" stroke-linejoin="round"></path>
                <path d="M124.3926,204.4596 C124.3926,204.4596 125.9016,201.7516 127.6926,203.2516 C127.6926,203.2516 128.4896,204.4026 128.3406,207.3056" id="Stroke-39" stroke="#221F20" stroke-linecap="round" stroke-linejoin="round"></path>
                <path d="M91.2225,206.497 C91.2225,206.497 89.2785,202.866 86.8475,203.002 C86.8475,203.002 84.8265,202.809 84.5355,206.809 L84.5355,212.424" id="Stroke-41" stroke="#221F20" stroke-linecap="round" stroke-linejoin="round"></path>
                <path d="M100.66,215.5595 C100.66,215.5595 102.035,210.3725 99.473,206.1215 C99.473,206.1215 96.035,201.9345 92.222,205.6215 C92.222,205.6215 89.91,208.2475 90.472,213.9975" id="Stroke-43" stroke="#221F20" stroke-linecap="round" stroke-linejoin="round"></path>
                <path d="M84.3266,205.8928 C84.3266,205.8928 82.7906,202.7058 80.2046,203.1948 C80.2046,203.1948 78.9096,203.6848 78.8266,205.4758 C78.8266,205.4758 78.7186,207.1098 78.6266,209.6678" id="Stroke-45" stroke="#221F20" stroke-linecap="round" stroke-linejoin="round"></path>
                <path d="M78.6268,204.5595 C78.6268,204.5595 77.1178,201.8515 75.3268,203.3515 C75.3268,203.3515 74.5298,204.5025 74.6788,207.4055" id="Stroke-47" stroke="#221F20" stroke-linecap="round" stroke-linejoin="round"></path>
                <path d="M101.4614,216.1759 C101.4274,216.1789 101.3884,216.1819 101.3554,216.1849" id="Stroke-49" stroke="#221F20" stroke-linecap="round" stroke-linejoin="round"></path>
                <path d="M102.0321,204.018 C106.6991,202.813 113.9841,202.835 113.9841,202.835 C117.4841,202.835 120.2341,203.46 127.2341,202.835 C127.4011,202.82 127.5661,202.803 127.7291,202.783 C130.3831,202.469 132.5571,201.584 134.2251,200.633 C134.1311,205.639 120.9841,211.191 120.9841,211.191 C113.6731,214.833 105.2861,215.879 101.4611,216.176" id="Stroke-51" stroke="#221F20" stroke-linecap="round" stroke-linejoin="round"></path>
                <path d="M100.8906,204.018 C96.2236,202.813 88.9386,202.835 88.9386,202.835 C85.4386,202.835 82.6886,203.46 75.6886,202.835 C75.5216,202.82 75.3566,202.803 75.1936,202.783 C72.5396,202.469 70.3656,201.584 68.6976,200.633 C68.7916,205.639 81.9386,211.191 81.9386,211.191 C89.2496,214.833 97.6366,215.879 101.4616,216.176" id="Stroke-53" stroke="#221F20" stroke-linecap="round" stroke-linejoin="round"></path>
                <path d="M101.4614,216.1759 C101.4954,216.1789 101.5344,216.1819 101.5674,216.1849" id="Stroke-55" stroke="#221F20" stroke-linecap="round" stroke-linejoin="round"></path>
                <path d="M100.6182,203.9502 C100.6182,203.9502 101.2952,204.1742 102.3042,203.9502" id="Stroke-57" stroke="#221F20" stroke-linecap="round" stroke-linejoin="round"></path>
                <path d="M102.114,196.6889 C105.404,195.9309 111.856,195.2199 122.609,196.9599 C122.609,196.9599 126.359,197.4599 130.859,197.5849 L138.109,197.5849 C138.109,197.5849 142.354,202.4069 135.318,209.7929 C135.318,209.7929 121.544,224.1119 101.478,224.7749" id="Stroke-59" stroke="#221F20" stroke-linecap="round" stroke-linejoin="round"></path>
                <path d="M100.8087,196.6889 C97.5187,195.9309 91.0667,195.2199 80.3137,196.9599 C80.3137,196.9599 76.5637,197.4599 72.0637,197.5849 L64.8137,197.5849 C64.8137,197.5849 60.5687,202.4069 67.6047,209.7929 C67.6047,209.7929 81.3787,224.1119 101.4447,224.7749" id="Stroke-61" stroke="#221F20" stroke-linecap="round" stroke-linejoin="round"></path>
                <path d="M100.7062,196.6729 C100.7062,196.6729 101.4422,196.8489 102.2502,196.6729" id="Stroke-63" stroke="#221F20" stroke-linecap="round" stroke-linejoin="round"></path>
                <path d="M69.1665,169.5676 C69.1665,169.5676 65.4585,180.2346 55.7915,183.5676 C55.7915,183.5676 49.4585,186.9006 50.7915,192.9006" id="Stroke-65" stroke="#221F20" stroke-linecap="round" stroke-linejoin="round"></path>
                <path d="M23.7925,138.9038 C23.7925,138.9038 22.7935,174.0678 23.7925,186.5678 C23.7925,186.5678 26.5415,210.9818 31.5415,220.7748 C31.5415,220.7748 55.2855,250.9648 68.1665,258.5678" id="Stroke-67" stroke="#221F20" stroke-linecap="round" stroke-linejoin="round"></path>
                <path d="M100.9247,270.595 C100.9247,270.595 74.6317,272.541 67.8647,256.484" id="Stroke-69" stroke="#221F20" stroke-linecap="round" stroke-linejoin="round"></path>
                <path d="M101.0987,270.595 C101.0987,270.595 126.8667,272.541 133.4987,256.484" id="Stroke-71" stroke="#221F20" stroke-linecap="round" stroke-linejoin="round"></path>
                <path d="M17.8843,126.1029 C17.8843,126.1029 11.1663,129.9359 13.1253,136.5679 C13.1253,136.5679 14.7913,141.3179 15.5413,144.1929 C15.5413,144.1929 17.6663,153.9399 17.9163,158.2539 C17.9163,158.2539 19.6663,166.5679 19.2913,170.9429 C19.2913,170.9429 17.9273,176.7099 23.6093,183.5759" id="Stroke-73" stroke="#221F20" stroke-linecap="round" stroke-linejoin="round"></path>
                <path d="M132.8868,169.9009 C132.8868,169.9009 136.5948,180.5679 146.2618,183.9009 C146.2618,183.9009 152.5948,187.2339 151.2618,193.2339" id="Stroke-75" stroke="#221F20" stroke-linecap="round" stroke-linejoin="round"></path>
                <path d="M177.1774,140.6751 C177.1774,140.6751 178.1524,174.9641 177.1534,187.4641 C177.1534,187.4641 174.4044,211.8781 169.4044,221.6711 C169.4044,221.6711 145.6614,251.8611 132.7794,259.4641" id="Stroke-77" stroke="#221F20" stroke-linecap="round" stroke-linejoin="round"></path>
                <path d="M184.354,126.1926 C184.354,126.1926 188.415,131.2346 188.082,136.5676 C188.082,136.5676 186.415,141.3176 185.665,144.1926 C185.665,144.1926 183.54,153.9396 183.29,158.2536 C183.29,158.2536 181.54,166.5676 181.915,170.9426 C181.915,170.9426 183.28,176.7096 177.598,183.5766" id="Stroke-79" stroke="#221F20" stroke-linecap="round" stroke-linejoin="round"></path>
                <path d="M182.8516,112.9856 C165.9116,110.7366 145.2686,93.5676 145.2686,93.5676 C154.0796,100.5676 142.8616,100.2346 142.8616,100.2346 C124.5986,99.2346 92.1246,66.5676 92.1246,66.5676 C92.4586,74.5676 113.2826,89.2346 113.2826,89.2346 C124.1066,96.2346 111.6356,96.5676 111.6356,96.5676 C89.4786,91.9006 77.4806,80.2346 77.4806,80.2346 C83.1696,87.2346 73.6596,82.9006 73.6596,82.9006 C41.5286,61.2346 49.6076,42.9006 49.6076,42.9006 C49.6076,42.9006 45.7916,57.9006 32.4586,72.9006 C32.4586,72.9006 31.1246,95.5796 21.7916,112.1606" id="Stroke-81" stroke="#221F20" stroke-linecap="round" stroke-linejoin="round"></path>
                <path d="M15.5415,144.1926 C15.5415,144.1926 1.7915,139.8006 7.6965,117.2576 C7.6965,117.2576 0.1135,122.0696 0.4585,111.3166 C0.4585,111.3166 -5.8755,20.5676 55.7915,12.2346 C55.7915,12.2346 109.6615,-22.0974 174.7925,26.8866 C174.7925,26.8866 215.7915,64.9006 192.7915,137.2346 C192.7915,137.2346 189.4585,151.0016 185.4585,148.5676" id="Stroke-83" stroke="#221F20" stroke-linecap="round" stroke-linejoin="round"></path>
                <path d="M113.3926,307.4009 C113.3926,312.6479 108.1026,316.9009 101.5766,316.9009 C95.0506,316.9009 89.7606,312.6479 89.7606,307.4009 C89.7606,302.1539 95.0506,297.9009 101.5766,297.9009 C108.1026,297.9009 113.3926,302.1539 113.3926,307.4009 L113.3926,307.4009 Z" id="Stroke-85" stroke="#221F20" stroke-linecap="round" stroke-linejoin="round"></path>
                <path d="M95.7063,298.8741 C95.7063,298.8741 72.7913,280.5411 38.1253,273.8741 C38.1253,273.8741 30.7913,270.6921 29.7913,288.8741 C29.7913,288.8741 21.4163,296.5671 27.5413,307.4011" id="Stroke-87" stroke="#221F20" stroke-linecap="round" stroke-linejoin="round"></path>
                <path d="M95.7063,315.7993 C95.7063,315.7993 72.7913,334.1323 38.1253,340.7993 C38.1253,340.7993 30.1663,343.3173 29.7913,325.7993 C29.7913,325.7993 23.2913,317.9423 27.5413,307.4013" id="Stroke-89" stroke="#221F20" stroke-linecap="round" stroke-linejoin="round"></path>
                <path d="M29.7915,288.8741 C29.7915,288.8741 60.4925,290.6811 91.4545,302.4991" id="Stroke-91" stroke="#221F20" stroke-linecap="round" stroke-linejoin="round"></path>
                <path d="M29.8098,326.4458 C29.8098,326.4458 53.7918,328.0678 91.4548,312.9428" id="Stroke-93" stroke="#221F20" stroke-linecap="round" stroke-linejoin="round"></path>
                <path d="M107.2842,298.9825 C107.2842,298.9825 130.1992,280.6495 164.8652,273.9825 C164.8652,273.9825 172.1992,270.8005 173.1992,288.9825 C173.1992,288.9825 181.5742,296.6755 175.4492,307.5095" id="Stroke-95" stroke="#221F20" stroke-linecap="round" stroke-linejoin="round"></path>
                <path d="M107.2842,315.9077 C107.2842,315.9077 130.1992,334.2407 164.8652,340.9077 C164.8652,340.9077 172.8242,343.4257 173.1992,325.9077 C173.1992,325.9077 179.6992,318.0507 175.4492,307.5097" id="Stroke-97" stroke="#221F20" stroke-linecap="round" stroke-linejoin="round"></path>
                <path d="M173.199,288.9825 C173.199,288.9825 142.498,290.7895 111.536,302.6075" id="Stroke-99" stroke="#221F20" stroke-linecap="round" stroke-linejoin="round"></path>
                <path d="M173.1807,326.5541 C173.1807,326.5541 149.1987,328.1761 111.5357,313.0511" id="Stroke-101" stroke="#221F20" stroke-linecap="round" stroke-linejoin="round"></path>
                <path d="M101.5672,297.1931 C132.2172,284.0031 155.1922,259.4641 155.1922,259.4641 C160.5922,252.8611 158.2912,241.9061 158.2912,241.9061 C158.2912,241.9061 171.5702,266.2711 173.1812,270.6691 C173.1812,270.6691 177.6892,283.0681 174.3362,290.2591" id="Stroke-103" stroke="#221F20" stroke-linecap="round" stroke-linejoin="round"></path>
                <path d="M101.5672,297.1931 C70.9172,284.0031 47.6812,259.4661 47.6812,259.4661 C42.2812,252.8631 44.5822,241.9081 44.5822,241.9081 C44.5822,241.9081 31.3032,266.2721 29.6922,270.6711 C29.6922,270.6711 25.9442,282.7691 28.5622,290.0651" id="Stroke-105" stroke="#221F20" stroke-linecap="round" stroke-linejoin="round"></path>
                <path d="M158.5827,243.9009 C158.5827,243.9009 157.6387,238.7329 158.1157,235.5669" id="Stroke-107" stroke="#221F20" stroke-linecap="round" stroke-linejoin="round"></path>
                <path d="M44.2509,244.9107 C44.2509,244.9107 45.1949,239.7427 44.7179,236.5767" id="Stroke-109" stroke="#221F20" stroke-linecap="round" stroke-linejoin="round"></path>
            </g>
        </g>
    </g>
</svg>